<svg width="197" height="38" viewBox="0 0 197 38" fill="none" xmlns="http://www.w3.org/2000/svg">
<path d="M15.9242 6.79709C16.0806 5.01282 18.2147 3.63312 20.5148 4.08729L21.1428 4.21324C22.2568 4.4346 23.2457 5.08343 23.5777 6.05476C24.107 7.61193 24.8601 10.8465 23.7269 14.6612C24.0812 14.6224 24.4366 14.5899 24.7927 14.5639C26.5082 14.4399 28.8084 14.4265 30.8462 14.9646C32.0926 15.2948 33.2378 16.2642 33.7335 17.3939C34.1762 18.4091 34.1184 19.6114 33.1704 20.701C33.31 20.9281 33.4183 21.1628 33.5025 21.3937C33.6877 21.909 33.7744 22.4757 33.7744 23.0272C33.7744 23.5787 33.6877 24.1455 33.5025 24.6607C33.4086 24.9184 33.2859 25.1817 33.1175 25.4317C33.5241 26.1702 33.375 26.9946 33.1103 27.6224C32.8393 28.2424 32.4428 28.8231 31.9362 29.3418C32.0661 29.6319 32.119 29.9372 32.119 30.2292C32.119 30.8112 31.9049 31.4219 31.5103 31.9696C30.7067 33.0878 29.1115 34 26.8571 34H18.4361C16.9804 34 15.8616 33.8454 14.9088 33.584C14.0896 33.3467 13.3067 33.0369 12.575 32.6604L12.4595 32.6031C11.2469 32.0173 10.0559 31.441 7.4839 31.2253C5.6409 31.0688 4 29.8895 4 28.2751V20.6419C4 19.0198 5.64812 17.9092 7.26495 17.5599C9.30766 17.1172 11.052 16.0581 12.3946 14.8692C13.7419 13.6727 14.5937 12.4266 14.8944 11.7415C15.3732 10.6442 15.7509 8.80463 15.9242 6.799V6.79709Z" fill="white"/>
<path d="M48.179 26V23.7841L53.3565 18.9901C53.7969 18.5639 54.1662 18.1804 54.4645 17.8395C54.7675 17.4986 54.9972 17.1648 55.1534 16.8381C55.3097 16.5066 55.3878 16.1491 55.3878 15.7656C55.3878 15.3395 55.2907 14.9725 55.0966 14.6648C54.9025 14.3523 54.6373 14.1132 54.3011 13.9474C53.965 13.777 53.5838 13.6918 53.1577 13.6918C52.7126 13.6918 52.3243 13.7817 51.9929 13.9616C51.6615 14.1416 51.4058 14.3996 51.2259 14.7358C51.0459 15.072 50.956 15.4721 50.956 15.9361H48.0369C48.0369 14.9844 48.2524 14.1581 48.6832 13.4574C49.1141 12.7566 49.7178 12.2145 50.4943 11.831C51.2708 11.4474 52.1657 11.2557 53.179 11.2557C54.2206 11.2557 55.1274 11.4403 55.8991 11.8097C56.6757 12.1742 57.2794 12.6809 57.7102 13.3295C58.1411 13.9782 58.3565 14.7216 58.3565 15.5597C58.3565 16.1089 58.2476 16.651 58.0298 17.1861C57.8168 17.7211 57.4356 18.3153 56.8864 18.9688C56.3371 19.6174 55.563 20.3963 54.5639 21.3054L52.4403 23.3864V23.4858H58.5483V26H48.179ZM66.4798 26.3196C65.2582 26.3149 64.207 26.0142 63.3263 25.4176C62.4504 24.821 61.7757 23.9569 61.3022 22.8253C60.8335 21.6937 60.6014 20.3324 60.6062 18.7415C60.6062 17.1553 60.8406 15.8035 61.3093 14.6861C61.7828 13.5687 62.4575 12.7187 63.3335 12.1364C64.2141 11.5492 65.2629 11.2557 66.4798 11.2557C67.6966 11.2557 68.743 11.5492 69.619 12.1364C70.4996 12.7235 71.1767 13.5758 71.6502 14.6932C72.1237 15.8059 72.3581 17.1553 72.3533 18.7415C72.3533 20.3371 72.1166 21.7008 71.6431 22.8324C71.1744 23.964 70.502 24.8281 69.6261 25.4247C68.7501 26.0213 67.7013 26.3196 66.4798 26.3196ZM66.4798 23.7699C67.3131 23.7699 67.9783 23.3509 68.4755 22.5128C68.9727 21.6747 69.2189 20.4176 69.2141 18.7415C69.2141 17.6383 69.1005 16.7197 68.8732 15.9858C68.6507 15.2519 68.3335 14.7003 67.9215 14.331C67.5143 13.9616 67.0337 13.777 66.4798 13.777C65.6512 13.777 64.9883 14.1913 64.4911 15.0199C63.994 15.8485 63.743 17.089 63.7383 18.7415C63.7383 19.8589 63.8496 20.7917 64.0721 21.5398C64.2994 22.2831 64.619 22.8419 65.0309 23.2159C65.4428 23.5852 65.9258 23.7699 66.4798 23.7699Z" fill="white"/>
<path d="M101.923 31.2021C102.079 32.9884 104.213 34.3682 106.513 33.9121L107.141 33.788C107.717 33.6813 108.247 33.4542 108.675 33.1304C109.103 32.8066 109.414 32.3978 109.576 31.9464C110.105 30.3892 110.858 27.1525 109.725 23.3396C110.052 23.3778 110.411 23.4102 110.791 23.4369C112.506 23.561 114.806 23.5724 116.844 23.0342C118.09 22.7041 119.235 21.7365 119.731 20.6068C119.979 20.0599 120.057 19.4736 119.959 18.8976C119.861 18.3216 119.59 17.7728 119.168 17.2976C119.307 17.0724 119.415 16.8358 119.5 16.6068C119.685 16.0915 119.771 15.5228 119.771 14.9732C119.771 14.4198 119.685 13.8549 119.5 13.3377C119.405 13.0715 119.276 12.8138 119.115 12.5687C119.521 11.8301 119.372 11.0038 119.107 10.3759C118.836 9.75662 118.44 9.1765 117.933 8.65837C118.063 8.36639 118.116 8.06105 118.116 7.77097C118.106 7.1589 117.896 6.55934 117.508 6.03052C116.704 4.9103 115.109 4 112.855 4H104.435C102.979 4 101.86 4.15267 100.908 4.41412C100.089 4.65207 99.3057 4.96255 98.5742 5.33969L98.4587 5.39503C97.2462 5.98281 96.0553 6.55915 93.4836 6.77479C91.6407 6.92937 90 8.11066 90 9.72325V17.3568C90 18.9808 91.648 20.0915 93.2646 20.4408C95.3071 20.8835 97.0513 21.9427 98.3937 23.1316C99.741 24.3262 100.593 25.5743 100.893 26.2575C101.372 27.3548 101.75 29.1964 101.923 31.2021Z" fill="white"/>
<path d="M139.882 26.3196C138.661 26.3149 137.609 26.0142 136.729 25.4176C135.853 24.821 135.178 23.9569 134.705 22.8253C134.236 21.6937 134.004 20.3324 134.009 18.7415C134.009 17.1553 134.243 15.8035 134.712 14.6861C135.185 13.5687 135.86 12.7187 136.736 12.1364C137.616 11.5492 138.665 11.2557 139.882 11.2557C141.099 11.2557 142.145 11.5492 143.021 12.1364C143.902 12.7235 144.579 13.5758 145.053 14.6932C145.526 15.8059 145.76 17.1553 145.756 18.7415C145.756 20.3371 145.519 21.7008 145.045 22.8324C144.577 23.964 143.904 24.8281 143.028 25.4247C142.152 26.0213 141.104 26.3196 139.882 26.3196ZM139.882 23.7699C140.715 23.7699 141.381 23.3509 141.878 22.5128C142.375 21.6747 142.621 20.4176 142.616 18.7415C142.616 17.6383 142.503 16.7197 142.276 15.9858C142.053 15.2519 141.736 14.7003 141.324 14.331C140.917 13.9616 140.436 13.777 139.882 13.777C139.054 13.777 138.391 14.1913 137.893 15.0199C137.396 15.8485 137.145 17.089 137.141 18.7415C137.141 19.8589 137.252 20.7917 137.474 21.5398C137.702 22.2831 138.021 22.8419 138.433 23.2159C138.845 23.5852 139.328 23.7699 139.882 23.7699Z" fill="white"/>
<path fill-rule="evenodd" clip-rule="evenodd" d="M178 6.62809C186.321 -2.49587 207.127 13.4701 178 34C148.873 13.4721 169.679 -2.49587 178 6.62809Z" fill="white"/>
</svg>
